#!OML:ASF F:\VICON\USERDATA\INSTALL\rory3\rory3.ASF
:FULLY-SPECIFIED
:DEGREES
1
root 0.8911845693007014 17.614016914498617 -27.753883500576762 -2.5571176243757425 2.478065518738559 2.7007182907429654
lfemur 18.614182695555588 -5.087219901047834 -27.718688664498725
ltibia 16.862508122164453
lfoot -13.176991077688479 -5.263033723731873
ltoes -9.932000698963277
rfemur -28.62988833616518 5.429936593456475 18.51681021606371
rtibia 22.819507989041835
rfoot -8.440169876054672 -12.094789093987167
rtoes -0.03645414948339898
lowerback 9.200288618889195 -2.062093706951917 -5.6421344174507615
upperback 0.4078107553699874 -3.252293181795553 1.7192093380861868
thorax -4.319575049946367 -1.4846631980578104 5.385531332691452
lowerneck -17.007494836295358 -2.2214733923662426 -1.995629470495745
upperneck 21.172498102890962 -2.4885758210903246 -0.288077406770452
head 9.522917124219765 -1.3565839014504795 -0.09425422375329595
lclavicle -1.9532405922808237e-15 9.067692178406127e-16
lhumerus -23.189310942746214 -0.967657825779157 81.17871101489054
lradius 30.576688779914278
lwrist 6.02998518660108
lhand -32.67047145563531 25.6779938312595
lfingers 7.12502
lthumb -5.896071476833417 55.575994011988726
rclavicle -1.9532405922808237e-15 9.067692178406127e-16
rhumerus -32.956586873792695 -19.2231978680895 -77.31120626339305
rradius 25.223898815827784
rwrist 5.408491842936627
rhand -17.464200509087508 22.576299128505802
rfingers 7.12502
rthumb 8.787449486878874 -7.22080087102494
2
root 0.8420477371968469 17.709011582296142 -26.893981961294593 -2.778195887617861 2.058357034866902 0.18071344261126754
lfemur 16.977683444256854 -6.267415343514529 -25.314491859770374
ltibia 24.834903984693813
lfoot -9.319865704119518 -7.818300214634371
ltoes -16.35698150051153
rfemur -27.151189801125604 5.980794628091669 21.579306111158914
rtibia 24.467306995415548
rfoot -5.496892802889565 -9.607473920108719
rtoes 1.34293332796488
lowerback 9.211848473063332 -1.9730242322626785 -2.88007046895949
upperback 0.2478211056663219 -2.809964792533644 2.4443520127959033
thorax -4.645667642804128 -1.3025747051491805 4.540184804862953
lowerneck -17.02769456410455 -2.721305831982058 -2.412583207686261
upperneck 22.215785663956897 -3.0439839466817755 -0.415186674915473
head 9.906855054367124 -1.6670166343038415 -0.15278258151839977
lclavicle -1.9532406232003784e-15 9.067692373674622e-16
lhumerus -24.05920953928168 -0.46195777997518905 82.03600620152858
lradius 30.610588453759966
lwrist 6.360513993991283
lhand -32.81177045854976 24.775796361715575
lfingers 7.12502
lthumb -6.032530374409521 54.66989651107235
rclavicle -1.9532406232003784e-15 9.067692373674622e-16
rhumerus -33.709484633892494 -21.846693688063247 -75.27581310524283
rradius 23.431004306637785
rwrist 7.533606511914472
rhand -17.049404081730568 23.479895536001965
rfingers 7.12502
rthumb 9.187635909139905 -6.299924565545015
3
root 0.8092755408897121 17.77290799991675 -26.048282639233186 -2.9170047737028932 1.12339989409119 -0.35078926095524765
lfemur 14.046585035839865 -4.885010779859418 -24.106093954397775
ltibia 33.69029893717632
lfoot 1.6518110771117183 -11.816484605000234
ltoes -12.471787168365648
rfemur -25.85349113306937 4.367200351035014 23.030603977793692
rtibia 27.432005473146162
rfoot -4.474254092267442 -5.871540849297004
rtoes 3.8255893785769763
lowerback 9.145829283955882 -1.947664284521192 -2.2131721279808794
upperback -0.18713306720735184 -2.6844054118397107 2.800798367385169
thorax -5.090367511254836 -1.234625258218198 4.534884979617637
lowerneck -15.832910747183996 -2.422586321181222 -2.8313869845292134
upperneck 21.96048870995489 -2.5440046750374643 -0.45425316417180184
head 9.594514866957665 -1.4774671738231027 -0.012163132964430029
lclavicle -1.9532405896085018e-15 9.067692165388378e-16
lhumerus -26.762205325770566 1.9633576692915418 82.31540462498359
lradius 30.43018900196423
lwrist 5.8820255981931755
lhand -32.795770613380256 18.14081440648303
lfingers 7.12502
lthumb -6.0170205407349195 48.03531482538309
rclavicle -1.9532405896085018e-15 9.067692165388378e-16
rhumerus -34.795381757765426 -23.53679055178916 -73.0583206451322
rradius 21.79150926392334
rwrist 10.16488992035049
rhand -16.729006857463638 23.18429672311684
rfingers 7.12502
rthumb 9.49677319551921 -6.581693390723462
4
root 0.7409431607009802 17.87780211355838 -25.247184152342335 -3.3511113867048747 1.0382401354011255 -1.201232207823197
lfemur 9.044679134889055 -3.0749576524944553 -21.839597110487823
ltibia 43.488493043150555
lfoot 11.524579989693677 -14.26568131104981
ltoes 9.643160781384436
rfemur -23.457292252393657 3.0630449825086252 24.81090128075022
rtibia 29.164904345816822
rfoot -5.305673173527992 -3.4935654062733996
rtoes 4.493658328825386
lowerback 9.61458341496323 -1.7064457150916383 -1.2991242238213594
upperback 0.07612447661070615 -2.2598371104174015 2.9259271669016544
thorax -5.146596232916794 -1.0478868306854954 4.107376812740258
lowerneck -16.368903471425664 -2.580710779855084 -2.531171443536129
upperneck 21.56919341363092 -2.846948187802297 -0.3615373945544208
head 9.555896089913084 -1.5785915490807503 -0.07301981767990562
lclavicle -1.9532406009161614e-15 9.06769226953158e-16
lhumerus -27.725303738478 1.1998090953049627 83.04350050296385
lradius 30.95278816552934
lwrist 6.896272293689237
lhand -31.2762783964011 20.263208728600123
lfingers 7.12502
lthumb -4.549888683188077 50.194408865331425
rclavicle -1.9532406009161614e-15 9.06769226953158e-16
rhumerus -34.79048152518065 -24.49098895281324 -72.66832216888164
rradius 21.670109721005318
rwrist 10.208989905622799
rhand -16.500008776173242 22.516399361895683
rfingers 7.12502
rthumb 9.71772122700542 -7.239370795514375
5
root 0.693316296385789 17.999395291633544 -24.486383122020563 -3.203542541666504 1.1273598421036484 -3.346116963103598
lfemur 2.4047929415693954 -2.016121715912111 -18.453101895198298
ltibia 53.8224872314686
lfoot 20.35986897936568 -18.86707494080447
ltoes 3.8606696240967
rfemur -20.36589460409933 3.0374950248310473 27.691996969585148
rtibia 28.269604698798886
rfoot -5.813752589798705 -4.158754044005796
rtoes 7.679053321395076
lowerback 9.644453042779066 -1.4209474086982263 1.220760070252772
upperback 0.270324497188298 -1.5825794972037834 3.2860334695606963
thorax -5.071427945629241 -0.7720811063394419 2.9648513845952666
lowerneck -17.839583594884317 -2.92105882897823 -2.1314174449580325
upperneck 21.897989450534002 -3.41956589110065 -0.24084003523229625
head 9.946203845512152 -1.7917096902729346 -0.19874508493876616
lclavicle -1.953240596256137e-15 9.067692152370445e-16
lhumerus -27.841603525312348 -1.531185717612973 84.34679312313158
lradius 30.69128871283741
lwrist 7.806109450678626
lhand -30.517282608192684 22.40870283669628
lfingers 7.12502
lthumb -3.816952548461032 52.35430284708889
rclavicle -1.953240596256137e-15 9.067692152370445e-16
rhumerus -34.06238383789771 -23.675290618344157 -73.4243194838357
rradius 21.91290900232611
rwrist 8.40601432543032
rhand -17.54549981189294 22.36099998750857
rfingers 7.12502
rthumb 8.708950187470482 -7.43930999670922
6
root 0.6461424348708185 18.089390249022255 -23.77138424223576 -3.405040931916577 0.42873791163332164 -4.396194342507965
lfemur -3.106023355091219 0.10609511703632446 -16.463404873983094
ltibia 62.04728414600929
lfoot 12.802778739580837 -14.529180711948719
ltoes 4.083099055089713
rfemur -17.150696680690444 3.9308719042694418 29.37649459084469
rtibia 27.54720472584642
rfoot -7.204351167242651 -4.716443072977613
rtoes 9.183271006899547
lowerback 10.020298345858853 -1.0638895205320966 2.3407074909496255
upperback 0.3012356607348461 -0.9577289648957188 3.4441319468263565
thorax -5.2923129121695975 -0.4880404210184017 2.422543654854229
lowerneck -16.884496517273174 -2.9763168910047177 -2.248425694549197
upperneck 21.572693346057942 -3.5829424033590835 0.14865288897029583
head 9.66440267941726 -1.834757295741098 -0.047449158405962116
lclavicle -1.9532405620458757e-15 9.067692035208498e-16
lhumerus -28.28970277046625 -2.1372946299880002 84.91458986437462
lradius 29.269491602749916
lwrist 5.663956332913223
lhand -28.695992115475004 21.915004139454247
lfingers 7.12502
lthumb -2.0580821322404974 51.88490421232353
rclavicle -1.9532405620458757e-15 9.067692035208498e-16
rhumerus -32.83338703850227 -23.669090424173493 -73.73271849384852
rradius 21.15161127192959
rwrist 9.472841796430124
rhand -16.076712461675257 26.690882824355274
rfingers 7.12502
rthumb 10.126187572120418 -3.0454275129517834
